#!OML:ASF E:\acrobat2\Project_11_07_03\Capture day 1\Session 1\Acrobat.ASF
:FULLY-SPECIFIED
:DEGREES
269
root 6.20037 18.2337 -3.02089 2.6768 0.217238 1.51109
lowerback -2.54445 -1.90031 3.63106
upperback 2.86162 -2.7497 1.14547
thorax 4.2686 -1.27137 -1.01699
lowerneck 10.8847 -14.0444 -9.65838
upperneck -1.8453 -19.7662 2.57469
head -1.1687 -9.857 3.04334
rclavicle -1.5704e-014 -5.56597e-015
rhumerus -31.3741 4.72702 -79.5363
rradius 27.4303
rwrist -0.34515
rhand -7.14959 -36.4555
rfingers 7.12502
rthumb 18.7269 -65.5741
lclavicle -1.5704e-014 -5.56597e-015
lhumerus -30.7239 -2.40079 84.941
lradius 24.501
lwrist 12.7289
lhand -14.4391 -16.1945
lfingers 7.12502
lthumb 11.7057 13.4584
rfemur 2.04671 5.35874 21.4427
rtibia 2.19547
rfoot -21.3953 -25.239
rtoes 9.89696
lfemur -10.6103 3.96913 -10.3024
ltibia 17.9411
lfoot -8.77921 -4.27843
ltoes 28.3758
270
root 6.21538 18.232 -3.00739 2.70661 0.118081 1.43691
lowerback -2.59776 -1.90875 3.63573
upperback 2.83096 -2.76351 1.16246
thorax 4.26698 -1.27869 -1.00431
lowerneck 10.8705 -14.0178 -9.64879
upperneck -1.85298 -19.7222 2.74581
head -1.1546 -9.84131 3.09332
rclavicle 1.10325e-014 2.38542e-014
rhumerus -31.3728 4.70409 -79.5029
rradius 27.5572
rwrist -0.350154
rhand -7.04599 -36.372
rfingers 7.12502
rthumb 18.8266 -65.4809
lclavicle 1.10325e-014 2.38542e-014
lhumerus -30.795 -2.30581 84.9125
lradius 24.3319
lwrist 12.6445
lhand -14.1935 -15.9783
lfingers 7.12502
lthumb 11.9425 13.661
rfemur 2.03131 5.3395 21.4651
rtibia 2.23576
rfoot -21.3757 -25.1379
rtoes 9.63801
lfemur -10.3967 3.80608 -10.2881
ltibia 17.6071
lfoot -8.6458 -4.14729
ltoes 28.9308
271
root 6.23106 18.2297 -2.99297 2.74051 0.019276 1.36105
lowerback -2.6678 -1.90877 3.6431
upperback 2.80054 -2.76699 1.17757
thorax 4.27535 -1.28056 -0.995119
lowerneck 10.8575 -13.9716 -9.59642
upperneck -1.83959 -19.648 2.88202
head -1.14375 -9.81014 3.12587
rclavicle 2.69353e-014 1.19271e-014
rhumerus -31.4055 4.6839 -79.4684
rradius 27.7236
rwrist -0.383694
rhand -6.89408 -36.3963
rfingers 7.12502
rthumb 18.9727 -65.491
lclavicle 2.69353e-014 1.19271e-014
lhumerus -30.8641 -2.23191 84.8943
lradius 24.1637
lwrist 12.5537
lhand -14.0324 -15.7711
lfingers 7.12502
lthumb 12.0978 13.8592
rfemur 2.00787 5.28459 21.4768
rtibia 2.27948
rfoot -21.3283 -25.0181
rtoes 9.28601
lfemur -10.1748 3.62672 -10.2748
ltibia 17.2545
lfoot -8.57581 -3.96994
ltoes 29.4202
272
root 6.24733 18.2269 -2.97773 2.77532 -0.0753836 1.29259
lowerback -2.75086 -1.89979 3.65218
upperback 2.77198 -2.75881 1.18155
thorax 4.29291 -1.2762 -0.998211
lowerneck 10.8255 -13.917 -9.49144
upperneck -1.79026 -19.5556 2.97829
head -1.12836 -9.76977 3.13489
rclavicle -2.127e-014 1.03368e-014
rhumerus -31.4622 4.6609 -79.4422
rradius 27.9148
rwrist -0.44239
rhand -6.76321 -36.5059
rfingers 7.12502
rthumb 19.0985 -65.5882
lclavicle -2.127e-014 1.03368e-014
lhumerus -30.9153 -2.18065 84.8757
lradius 23.97
lwrist 12.4555
lhand -13.9631 -15.6626
lfingers 7.12502
lthumb 12.1647 13.9637
rfemur 1.97549 5.18828 21.4656
rtibia 2.3325
rfoot -21.2514 -24.8792
rtoes 8.82637
lfemur -9.94797 3.44078 -10.2708
ltibia 16.89
lfoot -8.58119 -3.75079
ltoes 29.8642
273
root 6.26342 18.2238 -2.96209 2.81091 -0.167652 1.23066
lowerback -2.83652 -1.88878 3.65377
upperback 2.74593 -2.74754 1.17904
thorax 4.31468 -1.27033 -1.00377
lowerneck 10.7482 -13.8718 -9.37175
upperneck -1.69893 -19.4698 3.06268
head -1.09352 -9.73357 3.13097
rclavicle 4.68138e-014 1.59028e-014
rhumerus -31.517 4.65323 -79.4294
rradius 28.1078
rwrist -0.525294
rhand -6.66134 -36.7009
rfingers 7.12502
rthumb 19.1965 -65.7735
lclavicle 4.68138e-014 1.59028e-014
lhumerus -30.9386 -2.12088 84.8457
lradius 23.7401
lwrist 12.349
lhand -13.951 -15.6629
lfingers 7.12502
lthumb 12.1763 13.9627
rfemur 1.92895 5.07696 21.4408
rtibia 2.4043
rfoot -21.1668 -24.7364
rtoes 8.2949
lfemur -9.72504 3.2773 -10.2647
ltibia 16.5307
lfoot -8.6521 -3.5236
ltoes 30.3515
274
root 6.27855 18.2204 -2.94655 2.85196 -0.258169 1.16016
lowerback -2.92201 -1.88157 3.65206
upperback 2.72038 -2.74128 1.17857
thorax 4.33692 -1.26707 -1.00568
lowerneck 10.6209 -13.8446 -9.26352
upperneck -1.56736 -19.4051 3.14263
head -1.03476 -9.7086 3.11968
rclavicle -2.48481e-015 2.38542e-015
rhumerus -31.5596 4.66054 -79.43
rradius 28.2906
rwrist -0.617186
rhand -6.61457 -36.9135
rfingers 7.12502
rthumb 19.2415 -65.9816
lclavicle -2.48481e-015 2.38542e-015
lhumerus -30.9373 -2.02977 84.7943
lradius 23.4887
lwrist 12.2409
lhand -13.9542 -15.7352
lfingers 7.12502
lthumb 12.1733 13.8906
rfemur 1.86038 5.00148 21.4345
rtibia 2.50123
rfoot -21.1147 -24.6207
rtoes 7.7861
lfemur -9.52549 3.17333 -10.2262
ltibia 16.209
lfoot -8.76947 -3.33314
ltoes 30.8459
275
root 6.29303 18.217 -2.93133 2.89796 -0.348618 1.08713
lowerback -3.00894 -1.87544 3.64718
upperback 2.69658 -2.7363 1.1751
thorax 4.36172 -1.26443 -1.00907
lowerneck 10.4687 -13.8356 -9.16938
upperneck -1.41341 -19.3641 3.23481
head -0.960198 -9.69612 3.11019
rclavicle -5.1684e-015 -1.98785e-014
rhumerus -31.5839 4.65104 -79.439
rradius 28.4462
rwrist -0.690605
rhand -6.62862 -37.0647
rfingers 7.12502
rthumb 19.228 -66.1342
lclavicle -5.1684e-015 -1.98785e-014
lhumerus -30.9164 -1.94923 84.7301
lradius 23.2361
lwrist 12.1697
lhand -13.9441 -15.81
lfingers 7.12502
lthumb 12.183 13.8152
rfemur 1.76882 4.96738 21.4405
rtibia 2.62853
rfoot -21.1123 -24.5307
rtoes 7.33231
lfemur -9.36044 3.14944 -10.1605
ltibia 15.9545
lfoot -8.9036 -3.22268
ltoes 31.2928
276
root 6.30733 18.214 -2.91676 2.94385 -0.440354 1.01452
lowerback -3.08622 -1.87061 3.63846
upperback 2.67443 -2.73241 1.17117
thorax 4.38287 -1.2625 -1.01052
lowerneck 10.3189 -13.8293 -9.09636
upperneck -1.25752 -19.3296 3.34548
head -0.88118 -9.68707 3.10957
rclavicle -8.94531e-015 7.95139e-015
rhumerus -31.5806 4.61961 -79.4474
rradius 28.5542
rwrist -0.72633
rhand -6.65902 -37.1533
rfingers 7.12502
rthumb 19.1987 -66.2256
lclavicle -8.94531e-015 7.95139e-015
lhumerus -30.8891 -1.89147 84.6649
lradius 23.002
lwrist 12.1517
lhand -13.8926 -15.8522
lfingers 7.12502
lthumb 12.2327 13.7701
rfemur 1.66062 4.95531 21.4519
rtibia 2.7886
rfoot -21.1682 -24.4447
rtoes 6.92182
lfemur -9.22814 3.21412 -10.074
ltibia 15.7772
lfoot -9.00969 -3.22782
ltoes 31.7655
277
root 6.32167 18.2117 -2.90298 2.98519 -0.526594 0.942419
lowerback -3.14667 -1.8707 3.6262
upperback 2.65341 -2.73422 1.17067
thorax 4.39571 -1.26373 -1.00621
lowerneck 10.1889 -13.816 -9.04118
upperneck -1.10989 -19.2899 3.47082
head -0.805487 -9.67524 3.11865
rclavicle 4.40308e-014 -9.54166e-015
rhumerus -31.5518 4.57054 -79.4488
rradius 28.6085
rwrist -0.715953
rhand -6.74927 -37.0774
rfingers 7.12502
rthumb 19.112 -66.1583
lclavicle 4.40308e-014 -9.54166e-015
lhumerus -30.8688 -1.82803 84.5984
lradius 22.7994
lwrist 12.163
lhand -13.8 -15.8725
lfingers 7.12502
lthumb 12.322 13.7444
rfemur 1.54696 4.93702 21.464
rtibia 2.97316
rfoot -21.2739 -24.3432
rtoes 6.55177
lfemur -9.12812 3.36805 -9.97098
ltibia 15.6801
lfoot -9.04691 -3.37312
ltoes 32.4163
278
root 6.3362 18.2104 -2.88974 3.01756 -0.597657 0.884963
lowerback -3.19171 -1.87545 3.60068
upperback 2.63572 -2.74078 1.16769
thorax 4.40352 -1.26776 -0.996872
lowerneck 10.0686 -13.7967 -8.98493
upperneck -0.956093 -19.2435 3.59926
head -0.729804 -9.66 3.12938
rclavicle -3.47873e-015 -7.15625e-015
rhumerus -31.5098 4.5052 -79.4438
rradius 28.6164
rwrist -0.670439
rhand -6.82657 -36.9423
rfingers 7.12502
rthumb 19.0376 -66.0306
lclavicle -3.47873e-015 -7.15625e-015
lhumerus -30.8542 -1.74203 84.5258
lradius 22.6274
lwrist 12.164
lhand -13.6895 -15.8644
lfingers 7.12502
lthumb 12.4285 13.746
rfemur 1.44253 4.88095 21.4543
rtibia 3.16731
rfoot -21.4035 -24.2121
rtoes 6.20712
lfemur -9.05948 3.59361 -9.87615
ltibia 15.6644
lfoot -8.99565 -3.66549
ltoes 33.381
279
root 6.35076 18.2103 -2.87699 3.04063 -0.649539 0.845445
lowerback -3.21726 -1.88348 3.55922
upperback 2.61856 -2.74974 1.15984
thorax 4.40116 -1.27359 -0.983106
lowerneck 9.92794 -13.7728 -8.92987
upperneck -0.755165 -19.1903 3.72709
head -0.635754 -9.64195 3.13559
rclavicle 2.28602e-014 -4.37326e-014
rhumerus -31.4712 4.43629 -79.4376
rradius 28.5938
rwrist -0.61444
rhand -6.90611 -36.768
rfingers 7.12502
rthumb 18.9611 -65.8638
lclavicle 2.28602e-014 -4.37326e-014
lhumerus -30.8478 -1.62987 84.4438
lradius 22.4825
lwrist 12.1275
lhand -13.5742 -15.8495
lfingers 7.12502
lthumb 12.5397 13.7542
rfemur 1.35028 4.7931 21.4211
rtibia 3.36712
rfoot -21.5544 -24.0614
rtoes 5.90386
lfemur -9.02371 3.87153 -9.79883
ltibia 15.7237
lfoot -8.84649 -4.07098
ltoes 34.6754
280
root 6.365 18.211 -2.86473 3.05308 -0.686223 0.81329
lowerback -3.21844 -1.89237 3.51023
upperback 2.5999 -2.7581 1.14972
thorax 4.38363 -1.27963 -0.966481
lowerneck 9.75748 -13.7269 -8.88075
upperneck -0.483967 -19.1068 3.85127
head -0.515774 -9.60966 3.13526
rclavicle -1.49089e-015 -1.27222e-014
rhumerus -31.4498 4.37064 -79.4333
rradius 28.5623
rwrist -0.571046
rhand -6.98169 -36.5875
rfingers 7.12502
rthumb 18.8884 -65.6904
lclavicle -1.49089e-015 -1.27222e-014
lhumerus -30.8475 -1.52481 84.3605
lradius 22.3565
lwrist 12.0677
lhand -13.463 -15.8465
lfingers 7.12502
lthumb 12.6468 13.7506
rfemur 1.26624 4.69045 21.3799
rtibia 3.5783
rfoot -21.725 -23.907
rtoes 5.63598
lfemur -9.02141 4.19482 -9.72677
ltibia 15.8528
lfoot -8.60313 -4.53337
ltoes 36.1669
281
root 6.37846 18.2121 -2.85308 3.05502 -0.719352 0.780495
lowerback -3.19293 -1.89915 3.45552
upperback 2.57803 -2.76212 1.14318
thorax 4.34822 -1.2841 -0.9416
lowerneck 9.56491 -13.6989 -8.87913
upperneck -0.163373 -19.0513 4.01806
head -0.365177 -9.59273 3.1501
rclavicle 3.57812e-015 -1.03368e-014
rhumerus -31.4436 4.33682 -79.4345
rradius 28.5316
rwrist -0.575466
rhand -7.01174 -36.4832
rfingers 7.12502
rthumb 18.8595 -65.5889
lclavicle 3.57812e-015 -1.03368e-014
lhumerus -30.8498 -1.44137 84.2844
lradius 22.2467
lwrist 11.9878
lhand -13.3653 -15.7984
lfingers 7.12502
lthumb 12.741 13.7929
rfemur 1.18317 4.59061 21.3428
rtibia 3.8073
rfoot -21.9107 -23.7563
rtoes 5.37671
lfemur -9.05295 4.56228 -9.64874
ltibia 16.0487
lfoot -8.29694 -4.99852
ltoes 37.5591
282
root 6.39092 18.2133 -2.84226 3.05331 -0.76213 0.730463
lowerback -3.14535 -1.90246 3.41099
upperback 2.54895 -2.76128 1.14856
thorax 4.29313 -1.28643 -0.908786
lowerneck 9.35026 -13.6643 -8.91578
upperneck 0.213878 -18.9909 4.17446
head -0.190289 -9.57335 3.16288
rclavicle 4.57205e-015 -2.22639e-014
rhumerus -31.4458 4.37471 -79.4472
rradius 28.5021
rwrist -0.654798
rhand -6.98521 -36.5151
rfingers 7.12502
rthumb 18.885 -65.6184
lclavicle 4.57205e-015 -2.22639e-014
lhumerus -30.8639 -1.34348 84.2099
lradius 22.1647
lwrist 11.8727
lhand -13.2865 -15.6767
lfingers 7.12502
lthumb 12.817 13.9098
rfemur 1.09058 4.52771 21.335
rtibia 4.05302
rfoot -22.1239 -23.621
rtoes 5.14542
lfemur -9.12238 4.9742 -9.544
ltibia 16.3091
lfoot -7.97165 -5.41851
ltoes 38.5495
